# xmcd
#
# Track frame offsets:
#	150
#	10922
#	27507
#	41273
#	55730
#	70418
#	83606
#	95197
#	113910
#	128704
#	140925
#	155804
#
# Disc length: 2231 seconds
#
# Revision: 0
# Processed by: cddbd v1.5.2PL0 Copyright (c) Steve Scherf et al.
# Submitted via: EasyCDDAExtractor 16.0.6.1
#
DISCID=a708b50c
DTITLE=Συλλογικός δίσκος - Χρυσά λαϊκά 11
DYEAR=2006
DGENRE=Λαϊκή
TTITLE0=Κοντολάζος Δημήτρης - Μού λείπεις εσύ [Τ. Σούκα-Η. Παπασιδέρη]
TTITLE1=Δούκισσα - Ο Σαλονικιός [Χ. Νικολόπουλου-Λ. Παπαδόπουλου]
TTITLE2=Μαργαρίτης Γιώργος - Εσύ μιλάς στην καρδιά μου [Τ. Σούκα]
TTITLE3=Στανίση Κατερίνα - Ας πέθαινες να γλύτωνα [Γ. Μανισαλή-Ν. Γιαννακοπούλ
TTITLE3=ου]
TTITLE4=Κόλλιας Κώστας - Εγώ γεννήθηκα καλό παιδί [[Β. Βασιλειάδη-Τ. Κωλέτη]
TTITLE5=Δούκισσα - Πήγα σε μάγισσες [Χ. Νικολόπουλου-Λ. Χαψιάδη]
TTITLE6=Νικολάου Φίλιππος - Μεγιέμελε [Φ. Νικολάου]
TTITLE7=Χριστοδουλόπουλος Μάκης - Εσύ ό,τι πεις [Η. Τρυφωνίδη-Αγγέλου]
TTITLE8=Μαυράκη Φωτεινή - Μη με παρακαλάς [Β. Ατραΐδη]
TTITLE9=Κόλλιας Κώστας - Εσύ είσαι τα καράβια μου [Γ. Μπούρα-Π. Πολίτου]
TTITLE10=Κοντολάζος Δημήτρης - Αν μ' αγαπούσες λίγο [Τ. Σούκα-Ν. Λουκά]
TTITLE11=Μαργαρίτης Γιώργος - Μεθυσμένα λόγια [Α. Ρεπάνη-Ν. Ρουβέλα]
EXTD=
EXTT0=
EXTT1=
EXTT2=
EXTT3=
EXTT4=
EXTT5=
EXTT6=
EXTT7=
EXTT8=
EXTT9=
EXTT10=
EXTT11=
PLAYORDER=
